<?xml version="1.0" encoding="utf-8"?>
<!-- Generator: Adobe Illustrator 16.0.3, SVG Export Plug-In . SVG Version: 6.00 Build 0)  -->
<!DOCTYPE svg PUBLIC "-//W3C//DTD SVG 1.1//EN" "http://www.w3.org/Graphics/SVG/1.1/DTD/svg11.dtd">
<svg version="1.1" id="Layer_1" xmlns="http://www.w3.org/2000/svg" xmlns:xlink="http://www.w3.org/1999/xlink" x="0px" y="0px"
	 width="271.448px" height="40.656px" viewBox="0 0 271.448 40.656" enable-background="new 0 0 271.448 40.656"
	 xml:space="preserve">
<g>
	<defs>
		<rect id="SVGID_1_" width="271.448" height="40.656"/>
	</defs>
	<clipPath id="SVGID_2_">
		<use xlink:href="#SVGID_1_"  overflow="visible"/>
	</clipPath>
	<path clip-path="url(#SVGID_2_)" fill="#58595B" d="M266.198,25.597c0.06-2.881,1.47-4.801,4.14-4.801c0.36,0,0.75,0.091,1.11,0.12
		v-1.74c-0.601-0.029-1.2-0.06-1.8-0.029c-1.5,0.06-2.851,1.14-3.391,2.67h-0.06l-0.091-2.22h-1.859c0.061,1.02,0.18,2.22,0.15,3.39
		v11.67h1.8V25.597z M250.328,25.896c0.24-2.641,1.8-5.101,4.74-5.101c3.119,0,4.68,2.19,4.89,5.101H250.328z M261.908,27.546
		c0-4.71-1.83-8.399-6.87-8.399c-4.47,0-6.72,3.899-6.72,7.979c0,4.11,2.1,7.98,6.6,7.98c3.63,0,5.88-1.65,6.811-5.25h-1.891
		c-0.449,2.069-2.22,3.6-4.35,3.6c-3.69,0-5.16-2.7-5.221-5.91H261.908z M235.838,25.986c0-2.7,1.35-5.19,4.32-5.19
		c2.46,0,3.96,1.53,3.96,4.141v9.72h1.8v-9.42c0-1.74-0.39-6.09-5.311-6.09c-1.949,0-3.659,0.87-4.709,2.729l-0.061-0.06l-0.09-2.22
		h-1.859c0.06,1.02,0.149,2.22,0.149,3.39v11.67h1.8V25.986z M229.238,21.816l-0.061,0.12c-1.199-1.74-2.76-2.79-4.949-2.79
		c-4.59,0-6.42,3.779-6.42,7.859c0,4.141,1.949,7.591,6.479,7.591c1.95,0,4.021-1.051,4.89-2.82h0.061v2.82
		c-0.061,2.52-2.221,4.17-4.561,4.17c-1.92,0-4.05-0.601-4.26-2.4h-1.949c0,3.12,3.239,4.05,5.969,4.05
		c1.41,0,2.221-0.12,3.42-0.689c3.33-1.561,3.181-4.71,3.181-7.71v-9.03c0-1.17,0.09-2.37,0.149-3.39h-1.859L229.238,21.816z
		 M229.238,26.796c0,2.94-1.32,6.15-4.77,6.15c-3.301,0-4.711-3.33-4.711-6.09s1.381-6.061,4.65-6.061
		C227.648,20.796,229.238,23.916,229.238,26.796 M215.678,12.996h-2.1v2.25h2.1V12.996z M213.729,34.656h1.8v-15.06h-1.8V34.656z
		 M199.688,23.347c0,2.79,2.4,3.479,4.771,4.05c2.399,0.54,4.771,0.899,4.771,3.06c0,2.101-2.01,3-3.931,3
		c-2.04,0-4.02-0.66-4.17-2.91h-1.95c0.061,3.33,3.061,4.561,5.67,4.561c3.181,0,6.33-1.53,6.33-4.92c0-1.62-0.99-2.971-2.55-3.511
		c-4.08-1.439-6.989-1.229-6.989-3.449c0-1.771,1.709-2.431,3.39-2.431c1.86,0,3.54,0.63,3.72,2.521h1.95
		c-0.24-3.18-2.64-4.17-5.49-4.17C202.568,19.146,199.688,20.227,199.688,23.347 M186.128,25.896c0.24-2.641,1.8-5.101,4.74-5.101
		c3.12,0,4.68,2.19,4.89,5.101H186.128z M197.708,27.546c0-4.71-1.83-8.399-6.87-8.399c-4.47,0-6.72,3.899-6.72,7.979
		c0,4.11,2.101,7.98,6.601,7.98c3.629,0,5.879-1.65,6.81-5.25h-1.89c-0.451,2.069-2.221,3.6-4.351,3.6c-3.69,0-5.16-2.7-5.22-5.91
		H197.708z M180.309,34.656h1.859c-0.061-1.02-0.15-2.22-0.15-3.39V12.996h-1.799v8.82l-0.061,0.06
		c-1.051-1.77-3.15-2.729-5.16-2.729c-4.47,0-6.18,4.02-6.18,7.92c0,3.78,1.71,8.04,6.18,8.04c2.1,0,3.93-0.99,5.16-2.79l0.061,0.12
		L180.309,34.656z M180.158,26.767c0,3.42-1.2,6.689-5.13,6.689c-3.45,0-4.261-3.81-4.261-6.6c0-2.88,1.11-6.061,4.53-6.061
		C178.809,20.796,180.158,23.706,180.158,26.767"/>
	<path clip-path="url(#SVGID_2_)" fill="#FFFFFF" d="M154.047,0h-2.88v34.656h2.88V0z M142.191,19.872
		c-3.504,0.192-7.681-0.288-10.896,1.104c-2.88,1.199-4.848,3.695-4.848,6.96c0,4.704,3.552,7.439,8.016,7.439
		c3.264,0,6.48-1.92,7.536-3.936l0.144-0.336h0.096l0.097,3.552h2.976c-0.096-1.632-0.287-3.552-0.24-5.424V17.809
		c0.097-5.521-3.215-7.969-8.543-7.969c-4.608,0-8.304,1.872-9.024,6.816h3.072c0.384-3.264,2.88-4.176,5.904-4.176
		c3.408,0,5.423,1.248,5.712,5.184V19.872z M129.567,27.937c0-6.048,8.544-5.28,12.625-5.424c0.287,5.04-0.912,10.224-7.2,10.224
		C132.063,32.736,129.567,31.2,129.567,27.937 M105.087,20.641c0.384-4.225,2.88-8.16,7.584-8.16c4.992,0,7.488,3.504,7.824,8.16
		H105.087z M123.615,23.28c0-7.536-2.928-13.44-10.992-13.44c-7.152,0-10.752,6.24-10.752,12.769c0,6.576,3.36,12.768,10.56,12.768
		c5.808,0,9.408-2.64,10.896-8.399h-3.024c-0.72,3.312-3.552,5.76-6.96,5.76c-5.904,0-8.256-4.32-8.352-9.456H123.615z
		 M114.959,40.656v-2.64H98.987V8.889h-2.86v31.768H114.959z M86.639,19.872c-3.504,0.192-7.68-0.288-10.896,1.104
		c-2.88,1.199-4.848,3.695-4.848,6.96c0,4.704,3.552,7.439,8.016,7.439c3.264,0,6.48-1.92,7.536-3.936l0.144-0.336h0.096
		l0.096,3.552h2.976c-0.096-1.632-0.288-3.552-0.24-5.424V17.809c0.096-5.521-3.216-7.969-8.544-7.969
		c-4.608,0-8.304,1.872-9.024,6.816h3.072c0.384-3.264,2.88-4.176,5.904-4.176c3.408,0,5.424,1.248,5.712,5.184V19.872z
		 M74.015,27.937c0-6.048,8.544-5.28,12.624-5.424c0.288,5.04-0.912,10.224-7.2,10.224C76.511,32.736,74.015,31.2,74.015,27.937
		 M68.783,17.952c-0.24-5.136-4.272-8.112-9.216-8.112c-7.152,0-10.752,6.24-10.752,12.769c0,6.576,3.36,12.768,10.56,12.768
		c5.472,0,8.64-2.735,9.408-8.256h-3.12c-0.24,3.313-2.832,5.616-6.576,5.616c-4.416,0-7.152-4.656-7.152-10.176
		c0-5.473,2.736-10.08,7.152-10.08c3.984,0,6.336,1.775,6.576,5.472H68.783z M44.4,0h-3.36v3.601h3.36V0z M41.28,34.656h2.88V10.561
		h-2.88V34.656z M29.568,20.16c0.096-4.607,2.352-7.68,6.624-7.68c0.576,0,1.2,0.144,1.776,0.191V9.889
		c-0.96-0.049-1.92-0.097-2.88-0.049c-2.4,0.097-4.56,1.824-5.424,4.272h-0.096l-0.144-3.552h-2.976
		c0.096,1.632,0.288,3.552,0.24,5.424v18.672h2.88V20.16z M3.216,20.641c0.384-4.225,2.88-8.16,7.584-8.16
		c4.992,0,7.488,3.504,7.824,8.16H3.216z M21.744,23.28c0-7.536-2.928-13.44-10.992-13.44C3.6,9.84,0,16.08,0,22.608
		c0,6.576,3.36,12.768,10.56,12.768c5.808,0,9.408-2.64,10.896-8.399h-3.024c-0.72,3.312-3.552,5.76-6.96,5.76
		c-5.904,0-8.256-4.32-8.352-9.456H21.744z"/>
</g>
</svg>
