<?xml version="1.0" encoding="utf-8"?>
<!-- Generator: Adobe Illustrator 16.0.3, SVG Export Plug-In . SVG Version: 6.00 Build 0)  -->
<!DOCTYPE svg PUBLIC "-//W3C//DTD SVG 1.1//EN" "http://www.w3.org/Graphics/SVG/1.1/DTD/svg11.dtd">
<svg version="1.1" id="Layer_1" xmlns="http://www.w3.org/2000/svg" xmlns:xlink="http://www.w3.org/1999/xlink" x="0px" y="0px"
	 width="127px" height="381px" viewBox="0 0 127 381" enable-background="new 0 0 127 381" xml:space="preserve">
<path opacity="0.7" fill="#242424" enable-background="new    " d="M47.329,88.096L26.333,63.785l20.996-24.329l-5.822-5.022
	L16.171,63.785l25.335,29.341L47.329,88.096z"/>
<path opacity="0.7" fill="#242424" enable-background="new    " d="M79.672,39.462l20.996,24.317L79.672,88.103l5.822,5.021
	l25.334-29.345L85.494,34.434L79.672,39.462z"/>
<g opacity="0.7" enable-background="new    ">
	<image overflow="visible" opacity="0.9" width="62" height="90" xlink:href="2DACD2CC.png"  transform="matrix(1 0 0 1 3 150)">
	</image>
	<g>
		<polygon fill="#4D4D4D" points="47.329,215.096 26.333,190.785 47.329,166.456 41.507,161.434 16.171,190.785 41.507,220.126 		
			"/>
	</g>
</g>
<g opacity="0.7" enable-background="new    ">
	<image overflow="visible" opacity="0.9" width="62" height="90" xlink:href="2DACD2CD.png"  transform="matrix(1 0 0 1 66 150)">
	</image>
	<g>
		<polygon fill="#4D4D4D" points="79.672,166.462 100.668,190.779 79.672,215.103 85.494,220.124 110.828,190.779 85.494,161.434 		
			"/>
	</g>
</g>
<path opacity="0.6" fill="#FFFFFF" enable-background="new    " d="M47.329,342.096l-20.996-24.311l20.996-24.329l-5.822-5.022
	l-25.335,29.352l25.335,29.341L47.329,342.096z"/>
<path opacity="0.6" fill="#FFFFFF" enable-background="new    " d="M79.672,293.462l20.996,24.317l-20.996,24.323l5.822,5.021
	l25.334-29.345l-25.334-29.346L79.672,293.462z"/>
</svg>
