<svg xmlns="http://www.w3.org/2000/svg" xmlns:xlink="http://www.w3.org/1999/xlink" width="271.448" height="40.656"><defs><rect id="a" width="271.448" height="40.656"/></defs><clipPath id="b"><use xlink:href="#a" overflow="visible"/></clipPath><path clip-path="url(#b)" fill="#58595B" d="M266.198 25.597c.06-2.881 1.47-4.801 4.14-4.801.36 0 .75.091 1.11.12v-1.74c-.601-.029-1.2-.06-1.8-.029-1.5.06-2.851 1.14-3.391 2.67h-.06l-.091-2.22h-1.859c.061 1.02.18 2.22.15 3.39v11.67h1.8v-9.06zm-15.87.299c.24-2.641 1.8-5.101 4.74-5.101 3.119 0 4.68 2.19 4.89 5.101h-9.63zm11.58 1.65c0-4.71-1.83-8.399-6.87-8.399-4.47 0-6.72 3.899-6.72 7.979 0 4.11 2.1 7.98 6.6 7.98 3.63 0 5.88-1.65 6.811-5.25h-1.891c-.449 2.069-2.22 3.6-4.35 3.6-3.69 0-5.16-2.7-5.221-5.91h11.641zm-26.07-1.56c0-2.7 1.35-5.19 4.32-5.19 2.46 0 3.96 1.53 3.96 4.141v9.72h1.8v-9.42c0-1.74-.39-6.09-5.311-6.09-1.949 0-3.659.87-4.709 2.729l-.061-.06-.09-2.22h-1.859c.06 1.02.149 2.22.149 3.39v11.67h1.8v-8.67zm-6.6-4.17l-.061.12c-1.199-1.74-2.76-2.79-4.949-2.79-4.59 0-6.42 3.779-6.42 7.859 0 4.141 1.949 7.591 6.479 7.591 1.95 0 4.021-1.051 4.89-2.82h.061v2.82c-.061 2.52-2.221 4.17-4.561 4.17-1.92 0-4.05-.601-4.26-2.4h-1.949c0 3.12 3.239 4.05 5.969 4.05 1.41 0 2.221-.12 3.42-.689 3.33-1.561 3.181-4.71 3.181-7.71v-9.03c0-1.17.09-2.37.149-3.39h-1.859l-.09 2.219zm0 4.98c0 2.94-1.32 6.15-4.77 6.15-3.301 0-4.711-3.33-4.711-6.09s1.381-6.061 4.65-6.061c3.241.001 4.831 3.121 4.831 6.001m-13.56-13.8h-2.1v2.25h2.1v-2.25zm-1.949 21.66h1.8v-15.06h-1.8v15.06zm-14.041-11.309c0 2.79 2.4 3.479 4.771 4.05 2.399.54 4.771.899 4.771 3.06 0 2.101-2.01 3-3.931 3-2.04 0-4.02-.66-4.17-2.91h-1.95c.061 3.33 3.061 4.561 5.67 4.561 3.181 0 6.33-1.53 6.33-4.92 0-1.62-.99-2.971-2.55-3.511-4.08-1.439-6.989-1.229-6.989-3.449 0-1.771 1.709-2.431 3.39-2.431 1.86 0 3.54.63 3.72 2.521h1.95c-.24-3.18-2.64-4.17-5.49-4.17-2.642-.002-5.522 1.079-5.522 4.199m-13.56 2.549c.24-2.641 1.8-5.101 4.74-5.101 3.12 0 4.68 2.19 4.89 5.101h-9.63zm11.58 1.65c0-4.71-1.83-8.399-6.87-8.399-4.47 0-6.72 3.899-6.72 7.979 0 4.11 2.101 7.98 6.601 7.98 3.629 0 5.879-1.65 6.81-5.25h-1.89c-.451 2.069-2.221 3.6-4.351 3.6-3.69 0-5.16-2.7-5.22-5.91h11.64zm-17.399 7.11h1.859c-.061-1.02-.15-2.22-.15-3.39v-18.27h-1.799v8.82l-.061.06c-1.051-1.77-3.15-2.729-5.16-2.729-4.47 0-6.18 4.02-6.18 7.92 0 3.78 1.71 8.04 6.18 8.04 2.1 0 3.93-.99 5.16-2.79l.061.12.09 2.219zm-.151-7.889c0 3.42-1.2 6.689-5.13 6.689-3.45 0-4.261-3.81-4.261-6.6 0-2.88 1.11-6.061 4.53-6.061 3.512.001 4.861 2.911 4.861 5.972"/><path clip-path="url(#b)" fill="#fff" d="M154.047 0h-2.88v34.656h2.88v-34.656zm-11.856 19.872c-3.504.192-7.681-.288-10.896 1.104-2.88 1.199-4.848 3.695-4.848 6.96 0 4.704 3.552 7.439 8.016 7.439 3.264 0 6.48-1.92 7.536-3.936l.144-.336h.096l.097 3.552h2.976c-.096-1.632-.287-3.552-.24-5.424v-11.422c.097-5.521-3.215-7.969-8.543-7.969-4.608 0-8.304 1.872-9.024 6.816h3.072c.384-3.264 2.88-4.176 5.904-4.176 3.408 0 5.423 1.248 5.712 5.184v2.208zm-12.624 8.065c0-6.048 8.544-5.28 12.625-5.424.287 5.04-.912 10.224-7.2 10.224-2.929-.001-5.425-1.537-5.425-4.8m-24.48-7.296c.384-4.225 2.88-8.16 7.584-8.16 4.992 0 7.488 3.504 7.824 8.16h-15.408zm18.528 2.639c0-7.536-2.928-13.44-10.992-13.44-7.152 0-10.752 6.24-10.752 12.769 0 6.576 3.36 12.768 10.56 12.768 5.808 0 9.408-2.64 10.896-8.399h-3.024c-.72 3.312-3.552 5.76-6.96 5.76-5.904 0-8.256-4.32-8.352-9.456h18.624zm-8.656 17.376v-2.64h-15.972v-29.127h-2.86v31.768h18.832zm-28.32-20.784c-3.504.192-7.68-.288-10.896 1.104-2.88 1.199-4.848 3.695-4.848 6.96 0 4.704 3.552 7.439 8.016 7.439 3.264 0 6.48-1.92 7.536-3.936l.144-.336h.096l.096 3.552h2.976c-.096-1.632-.288-3.552-.24-5.424v-11.422c.096-5.521-3.216-7.969-8.544-7.969-4.608 0-8.304 1.872-9.024 6.816h3.072c.384-3.264 2.88-4.176 5.904-4.176 3.408 0 5.424 1.248 5.712 5.184v2.208zm-12.624 8.065c0-6.048 8.544-5.28 12.624-5.424.288 5.04-.912 10.224-7.2 10.224-2.928-.001-5.424-1.537-5.424-4.8m-5.232-9.985c-.24-5.136-4.272-8.112-9.216-8.112-7.152 0-10.752 6.24-10.752 12.769 0 6.576 3.36 12.768 10.56 12.768 5.472 0 8.64-2.735 9.408-8.256h-3.12c-.24 3.313-2.832 5.616-6.576 5.616-4.416 0-7.152-4.656-7.152-10.176 0-5.473 2.736-10.08 7.152-10.08 3.984 0 6.336 1.775 6.576 5.472h3.12zm-24.383-17.952h-3.36v3.601h3.36v-3.601zm-3.12 34.656h2.88v-24.095h-2.88v24.095zm-11.712-14.496c.096-4.607 2.352-7.68 6.624-7.68.576 0 1.2.144 1.776.191v-2.782c-.96-.049-1.92-.097-2.88-.049-2.4.097-4.56 1.824-5.424 4.272h-.096l-.144-3.552h-2.976c.096 1.632.288 3.552.24 5.424v18.672h2.88v-14.496zm-26.352.481c.384-4.225 2.88-8.16 7.584-8.16 4.992 0 7.488 3.504 7.824 8.16h-15.408zm18.528 2.639c0-7.536-2.928-13.44-10.992-13.44-7.152 0-10.752 6.24-10.752 12.768 0 6.576 3.36 12.768 10.56 12.768 5.808 0 9.408-2.64 10.896-8.399h-3.024c-.72 3.312-3.552 5.76-6.96 5.76-5.904 0-8.256-4.32-8.352-9.456h18.624z"/></svg>