<?xml version="1.0" encoding="utf-8"?>
<!-- Generator: Adobe Illustrator 16.0.2, SVG Export Plug-In . SVG Version: 6.00 Build 0)  -->
<!DOCTYPE svg PUBLIC "-//W3C//DTD SVG 1.1//EN" "http://www.w3.org/Graphics/SVG/1.1/DTD/svg11.dtd">
<svg version="1.1" id="Layer_1" xmlns="http://www.w3.org/2000/svg" xmlns:xlink="http://www.w3.org/1999/xlink" x="0px" y="0px"
	 width="276.098px" height="40.735px" viewBox="0 0 276.098 40.735" enable-background="new 0 0 276.098 40.735"
	 xml:space="preserve">
<g>
	<defs>
		<rect id="SVGID_1_" width="276.098" height="40.735"/>
	</defs>
	<clipPath id="SVGID_2_">
		<use xlink:href="#SVGID_1_"  overflow="visible"/>
	</clipPath>
	<path clip-path="url(#SVGID_2_)" fill="#58595B" d="M276.098,21.354v-1.83c-0.27-0.03-0.57-0.06-0.84-0.06
		c-2.04,0-3.54,0.72-4.65,2.459l-0.119-2.37h-1.801c-0.06,1.469,0.09,2.969,0.09,4.44v10.709h1.83v-8.58c0-3,1.021-4.889,4.26-4.889
		C275.288,21.235,275.678,21.293,276.098,21.354 M264.367,26.065h-9.239c0.239-2.76,1.8-5.34,4.86-5.34
		c2.879,0,4.379,2.37,4.379,5.04V26.065z M266.229,27.415c0-4.051-1.291-8.1-6.121-8.1c-4.77,0-6.899,3.719-6.899,8.071
		c0,4.26,2.04,7.648,6.659,7.648c3.421,0,5.641-1.74,6.271-5.129h-1.739c-0.391,2.279-1.891,3.779-4.291,3.779
		c-3.33,0-5.039-2.85-5.039-5.91v-0.359H266.229z M250.658,34.704v-9.27c0-3.75-1.2-6.03-5.311-6.03c-2.22,0-3.72,0.84-4.949,2.67
		l-0.121-2.52h-1.799c0,1.44,0.09,2.85,0.09,4.29v10.859h1.83v-8.068c0-3,1.199-5.701,4.619-5.701c3.48,0,3.811,2.4,3.811,5.221
		v8.549H250.658z M233.078,26.844c0,3.15-1.26,6.42-4.891,6.42c-3.51,0-4.859-3.09-4.859-6.18c0-3.119,1.289-6.36,4.89-6.36
		C231.518,20.725,233.078,23.934,233.078,26.844 M234.998,19.555h-1.891c0,0.93-0.029,1.86-0.029,2.79
		c-1.11-2.07-2.881-3.06-5.221-3.06c-4.379,0-6.539,3.72-6.539,7.71c0,4.199,2.069,7.619,6.629,7.619c2.281,0,3.871-0.898,5.07-2.82
		c0,3.75-0.06,7.592-4.949,7.592c-2.041,0-3.961-0.721-3.961-3.061h-1.859c0,3.449,3.029,4.41,5.97,4.41
		c6.99,0,6.66-5.67,6.66-10.92v-5.371C234.878,22.793,234.908,21.594,234.998,19.555 M218.77,19.555h-1.83v15.149h1.83V19.555z
		 M218.949,13.015h-2.19v2.279h2.19V13.015z M214.27,30.385c0-5.371-9-3.211-9-7.17c0-1.83,1.979-2.551,3.51-2.551
		c2.039,0,3.209,0.901,3.33,2.971h1.83c-0.09-3.151-2.281-4.441-5.221-4.441c-2.609,0-5.279,1.26-5.279,4.201
		c0,5.369,9.06,3.18,9.06,7.26c0,2.039-2.101,2.969-3.87,2.969c-2.221,0-3.75-1.08-3.75-3.359h-1.8c0,3.33,2.34,4.74,5.46,4.74
		C211.419,35.004,214.27,33.624,214.27,30.385 M199.689,26.065h-9.24c0.24-2.76,1.8-5.34,4.859-5.34c2.881,0,4.381,2.37,4.381,5.04
		V26.065z M201.549,27.415c0-4.051-1.29-8.1-6.12-8.1c-4.771,0-6.899,3.719-6.899,8.071c0,4.26,2.039,7.648,6.66,7.648
		c3.42,0,5.64-1.74,6.27-5.129h-1.74c-0.39,2.279-1.89,3.779-4.29,3.779c-3.329,0-5.04-2.85-5.04-5.91v-0.359H201.549z
		 M184.119,27.174c0,3-1.08,6.301-4.62,6.301c-3.66,0-4.95-3.211-4.95-6.361c0-2.969,1.08-6.389,4.62-6.389
		C182.77,20.725,184.119,24.055,184.119,27.174 M186.068,34.704c-0.119-1.5-0.119-3.029-0.119-4.529v-17.16h-1.83v9.24
		c-1.17-2.1-2.7-2.97-5.1-2.97c-4.351,0-6.42,3.781-6.42,7.681c0,4.109,2.01,7.979,6.569,7.979c2.34,0,3.66-0.84,4.95-2.76
		l0.15,2.52H186.068z"/>
	<path clip-path="url(#SVGID_2_)" fill="#FFFFFF" d="M155.77,0h-2.928v34.704h2.928V0z M143.193,22.321
		c0,5.328-0.432,10.799-7.343,10.799c-3.072,0-6-1.727-6-5.088c0-5.566,6.912-5.807,10.944-5.807
		C141.609,22.225,142.378,22.272,143.193,22.321 M146.506,34.704c-0.336-3.023-0.48-5.951-0.48-8.975v-7.201
		c0-6-2.783-8.496-8.783-8.496c-4.272,0-8.448,1.824-8.496,6.672h2.88c0.384-3.456,2.496-4.464,5.616-4.464
		c4.271,0,5.904,2.112,5.904,6.24c0,0.576,0,1.104-0.049,1.68h-1.248c-5.952,0-14.976,0.24-14.976,7.967
		c0,4.896,4.032,7.105,8.448,7.105c3.6,0,6.096-0.961,8.112-4.033c0.145,1.152,0.289,2.354,0.385,3.504H146.506z M121.45,20.881
		h-14.784c0.384-4.417,2.88-8.545,7.776-8.545c4.608,0,7.008,3.792,7.008,8.064V20.881z M124.426,23.04
		c0-6.479-2.064-12.959-9.792-12.959c-7.632,0-11.04,5.952-11.04,12.913c0,6.816,3.264,12.24,10.656,12.24
		c5.472,0,9.024-2.785,10.032-8.209h-2.784c-0.624,3.648-3.024,6.049-6.864,6.049c-5.328,0-8.064-4.561-8.064-9.457V23.04H124.426z
		 M116.906,40.704v-2.375h-15.972V8.893h-2.86v31.811H116.906z M87.934,22.321c0,5.328-0.432,10.799-7.344,10.799
		c-3.072,0-6-1.727-6-5.088c0-5.566,6.912-5.807,10.944-5.807C86.35,22.225,87.118,22.272,87.934,22.321 M91.246,34.704
		c-0.336-3.023-0.48-5.951-0.48-8.975v-7.201c0-6-2.784-8.496-8.784-8.496c-4.272,0-8.448,1.824-8.496,6.672h2.88
		c0.384-3.456,2.496-4.464,5.616-4.464c4.272,0,5.904,2.112,5.904,6.24c0,0.576,0,1.104-0.048,1.68H86.59
		c-5.952,0-14.976,0.24-14.976,7.967c0,4.896,4.032,7.105,8.448,7.105c3.6,0,6.096-0.961,8.112-4.033
		c0.144,1.152,0.288,2.354,0.384,3.504H91.246z M69.743,26.881h-2.736c-0.288,3.742-3.072,6.143-6.768,6.143
		c-5.76,0-8.256-5.184-8.256-10.32c0-5.519,2.256-10.607,8.496-10.607c3.744,0,6.096,2.16,6.432,5.903h2.832
		c-0.432-5.376-4.032-8.208-9.312-8.208c-7.776,0-11.568,5.809-11.568,13.056c0,7.152,3.84,12.385,11.328,12.385
		C65.519,35.233,69.215,32.305,69.743,26.881 M43.823,10.465h-2.928v24.239h2.928V10.465z M44.111,0h-3.504v3.648h3.504V0z
		 M37.584,13.345v-2.929c-0.432-0.048-0.912-0.096-1.344-0.096c-3.264,0-5.664,1.152-7.44,3.937l-0.192-3.792h-2.88
		c-0.096,2.352,0.144,4.752,0.144,7.104v17.135H28.8V20.977c0-4.8,1.632-7.825,6.816-7.825
		C36.288,13.152,36.912,13.248,37.584,13.345 M17.856,20.881H3.072c0.384-4.417,2.88-8.545,7.776-8.545
		c4.608,0,7.008,3.792,7.008,8.064V20.881z M20.832,23.04c0-6.479-2.064-12.959-9.792-12.959C3.408,10.08,0,16.032,0,22.993
		c0,6.816,3.264,12.24,10.656,12.24c5.472,0,9.024-2.785,10.032-8.209h-2.784c-0.624,3.648-3.024,6.049-6.864,6.049
		c-5.328,0-8.064-4.561-8.064-9.457V23.04H20.832z"/>
</g>
</svg>
